<?xml version="1.0" encoding="UTF-8"?>
<svg id="Layer_1" data-name="Layer 1" xmlns="http://www.w3.org/2000/svg" viewBox="0 0 612 79.1">
  <defs>
    <style>
      .cls-1 {
        fill: #fff;
      }
    </style>
  </defs>
  <path class="cls-1" d="M30.8,25.6c-4.6-.7-9.4-1.4-13.1-2.4-3.6-1-4.8-2.8-4.8-5.8s1.1-4.8,4.6-5.7c2.9-.6,6.7-.9,10.2-.9,6.7,0,15.1.5,22.3,1.3V1C42.2.5,35.1,0,28,0S14.8.4,9.5,3C2.4,6.4,0,12.1,0,18.9c0,11.5,6.9,15.5,22,18,5.1.9,10,1.6,13.8,2.6,3.7,1.2,4.9,3,4.9,6.2s-.9,5.2-4.8,6.2c-2.9.6-7.4,1-12.7,1s-15.5-.6-23-1.4v11.5c8.7.5,16.6,1,24.5,1s14.2-.7,19.6-3.3c7.1-3.4,9.6-9.3,9.6-16.3,0-12.3-7.9-16.3-23.1-18.6v-.2ZM168.9,6.3C161.7,1.5,152.2,0,140.1,0s-21.3,1.2-28.6,6.2c-8.1,5.6-11.2,14.8-11.2,25.7s3.1,20.1,11.2,25.6c7.2,4.9,16.8,6.4,28.8,6.4s21.2-1.3,28.5-6.3c8.2-5.6,11.2-14.7,11.2-25.7s-3-20.1-11.2-25.6h.1ZM140.2,52.9c-17.9,0-25.7-6.4-25.7-21.4s8-20.6,25.9-20.6,25.7,6.4,25.7,21.4-8,20.6-25.9,20.6ZM286.6,6.5c-5.8-4.8-14.4-5.3-26.3-5.3h-29.2v61.3h13.7v-18.3h12.6c14.2,0,22.3-.6,28.9-5.6,4.7-3.5,6.6-9,6.6-16.3s-1.9-12.3-6.4-15.8h.1ZM260.3,34h-15.5V11.5h15.4c11.6,0,18.9,1,18.9,11.1,0,9-5.3,11.4-18.8,11.4ZM359,36.5h38.5v26.1h13.7V1.2h-13.7v24.6h-38.5V1.2h-13.7v61.3h13.7v-26.1.1ZM481.4,1.2h-13.7v61.3h13.7V1.2ZM612,31.9c0-10.8-3-20.1-11.2-25.6-7.2-4.8-16.7-6.3-28.8-6.3s-21.3,1.2-28.6,6.2c-8.2,5.6-11.2,14.8-11.2,25.7s3,20.1,11.2,25.6c6.4,4.4,14.6,6,24.7,6.3h3.4l12.7,15.3h17l-15.7-16.3c5.8-.7,10.8-2.3,15.1-5.3,8.2-5.6,11.2-14.7,11.2-25.7l.2.1ZM572.1,52.9c-17.9,0-25.7-6.4-25.7-21.4s8-20.6,25.9-20.6,25.7,6.4,25.7,21.4-8,20.6-25.9,20.6Z"/>
</svg>